<svg height="45" viewBox="0 0 345 366" xmlns="http://www.w3.org/2000/svg"><g fill="none" fill-rule="evenodd"><path d="M126.249 244.15a13.413 13.413 0 003.435-.866c20.848-8.273 37.234-24.175 46.128-44.77 8.892-20.603 9.237-43.43.96-64.283l-32.21-81.171c-8.276-20.854-24.175-37.236-44.776-46.13-20.602-8.895-43.425-9.24-64.282-.96-6.913 2.744-10.297 10.578-7.548 17.496 2.74 6.915 10.563 10.294 17.489 7.552 14.159-5.624 29.666-5.393 43.66.653C103.094 37.71 113.889 48.838 119.51 63l32.217 81.167c5.62 14.17 5.386 29.67-.654 43.667-6.043 13.982-17.164 24.782-31.326 30.404-6.922 2.74-10.3 10.576-7.563 17.494 2.305 5.788 8.16 9.099 14.066 8.419" fill="#BFDAF9"></path><path d="M345 193.5c0 95.277-77.215 172.5-172.484 172.5S0 288.777 0 193.5 77.215 21 172.484 21 345 98.223 345 193.5" fill="#D9E8FB"></path><path d="M172.224 21c31.218 0 60.514 8.338 85.776 22.865-20.395-9.14-43-14.238-66.821-14.238C100.824 29.627 27.567 103 27.567 193.5c0 90.5 73.257 163.873 163.612 163.873 23.789 0 46.426-5.099 66.821-14.238C232.738 357.695 203.474 366 172.224 366 77.1 366.032 0 288.777 0 193.5S77.099 21 172.224 21" fill="#BFDAF9"></path><path d="M61.358 160.294c5.257 45.382 66.892 75.54 137.66 67.37 70.769-8.17 123.876-51.58 118.624-96.963-5.251-45.377-66.888-75.537-137.66-67.365-70.765 8.172-123.877 51.581-118.624 96.958" fill="#2A3756"></path><path d="M278.71 141.24c.478 4.12 4.207 7.078 8.334 6.604a7.52 7.52 0 00-1.729-14.938c-4.122.476-7.077 4.21-6.604 8.335M230.787 148.916a7.517 7.517 0 0014.932-1.73c-.473-4.123-4.212-7.081-8.333-6.607a7.516 7.516 0 00-6.6 8.337M242.763 130.542c.483 4.125 4.206 7.085 8.333 6.605a7.51 7.51 0 006.599-8.333 7.511 7.511 0 00-8.328-6.604c-4.126.476-7.078 4.208-6.604 8.332M261.55 127.383a7.518 7.518 0 1014.933-1.732c-.471-4.126-4.207-7.077-8.33-6.6-4.122.473-7.08 4.205-6.602 8.332M132.97 158.092c.482 4.123 4.214 7.083 8.334 6.607a7.52 7.52 0 006.603-8.333c-.478-4.125-4.206-7.083-8.33-6.605a7.52 7.52 0 00-6.607 8.33M85.052 165.766a7.507 7.507 0 008.329 6.6 7.505 7.505 0 006.597-8.328 7.512 7.512 0 00-8.325-6.607 7.51 7.51 0 00-6.601 8.335M97.027 147.394a7.517 7.517 0 008.33 6.604 7.514 7.514 0 006.604-8.333 7.52 7.52 0 00-8.325-6.605c-4.128.48-7.088 4.209-6.61 8.334M115.809 144.233a7.525 7.525 0 008.336 6.604 7.509 7.509 0 006.598-8.332c-.47-4.126-4.204-7.08-8.322-6.605-4.127.48-7.087 4.206-6.612 8.333" fill="#527BEF"></path><path d="M72.35 171.418c-1.064-5.604-2.887-21.26 0-31.642 4.779-17.18 20.388-40.627 26.804-47.337-8.346 5.576-22.172 17.034-30.234 31.74-7.506 13.692-9.624 30.52-7.932 39.667 1.96 10.581 9.505 23.514 21.486 33.431 20.854 17.264 50.916 28.758 57.965 26.982.4-.101-63.799-30.178-68.089-52.84z" fill="#252848"></path></g></svg>