<svg class="footer_mascot d-none d-xl-block" viewBox="0 0 1129 1342" xmlns="http://www.w3.org/2000/svg" xmlns:xlink="http://www.w3.org/1999/xlink"><defs><path d="M.213 291.43L1.712 4.06C22.016 3.21 41.263 1.9 58.996.21l7.782 284.07c-19.621 3.33-42.175 5.8-66.565 7.15z" id="a"></path></defs><g fill="none" fill-rule="evenodd"><path d="M661.42 602.763c-19.51 40.8-119.83 213.027-154 196.697-34.154-16.33 36.901-202.555 56.41-243.36 19.5-40.81 57.17-63.438 84.12-50.555 26.95 12.885 32.99 56.406 13.47 97.218" fill="#EBECED"></path><path d="M1126.8 423.214c17.62 165.182-106.49 313.856-277.21 332.066-170.72 18.21-323.401-100.94-341.022-266.12C490.95 323.979 615.06 175.31 785.78 157.1c170.72-18.21 323.4 100.932 341.02 266.114" fill="#FFF"></path><path d="M895.65 365.999c-1.64.246-3.35.283-5.09.085-32.01-3.678-60.68-19.607-80.72-44.848-20.04-25.25-29.05-56.785-25.37-88.807L798.8 107.8c3.67-32.02 19.6-60.691 44.84-80.728 25.25-20.045 56.78-29.053 88.8-25.371 10.62 1.219 18.24 10.819 17.02 21.442-1.22 10.62-10.8 18.232-21.44 17.016-21.74-2.503-43.16 3.617-60.31 17.231-17.14 13.614-27.95 33.083-30.46 54.829L822.93 236.85c-2.5 21.751 3.62 43.167 17.23 60.32 13.61 17.132 33.08 27.953 54.82 30.453 10.63 1.218 18.25 10.82 17.03 21.441-1.03 8.89-7.92 15.673-16.36 16.935" fill="#FFF"></path><path d="M1001.67 393.447c-1 75.218-96.76 134.92-213.89 133.36-117.12-1.563-211.26-63.8-210.26-139.021 1.01-75.211 96.77-134.915 213.9-133.355 117.12 1.567 211.26 63.803 210.25 139.016" fill="#2A3756"></path><path d="M649.25 386.576c-.08 5.961-4.97 10.729-10.94 10.653-5.97-.075-10.74-4.976-10.66-10.944.09-5.961 4.98-10.733 10.95-10.655 5.96.08 10.73 4.982 10.65 10.946M718.86 390.548c-.07 5.962-4.97 10.727-10.94 10.65a10.79 10.79 0 01-10.65-10.939c.08-5.961 4.98-10.736 10.94-10.657 5.96.081 10.73 4.977 10.65 10.946M699.07 366.038c-.09 5.968-4.98 10.738-10.95 10.657-5.96-.08-10.73-4.976-10.65-10.941.08-5.968 4.97-10.736 10.94-10.656 5.96.08 10.73 4.979 10.66 10.94M671.75 364.268c-.08 5.961-4.97 10.728-10.94 10.652-5.97-.082-10.73-4.982-10.65-10.946.07-5.966 4.98-10.731 10.94-10.651 5.96.076 10.73 4.979 10.65 10.945M859.99 389.385c-.08 5.963-4.98 10.734-10.95 10.66-5.96-.082-10.72-4.984-10.64-10.944.08-5.965 4.97-10.736 10.93-10.656 5.97.078 10.73 4.972 10.66 10.94M929.6 393.357c-.07 5.966-4.98 10.731-10.94 10.649-5.97-.077-10.73-4.974-10.65-10.937.08-5.965 4.98-10.74 10.94-10.66 5.97.082 10.73 4.986 10.65 10.948M909.8 368.851c-.08 5.963-4.98 10.735-10.95 10.656-5.96-.08-10.73-4.98-10.64-10.948.08-5.961 4.97-10.728 10.93-10.652 5.97.08 10.74 4.98 10.66 10.944M882.49 367.074c-.08 5.965-4.98 10.735-10.94 10.655-5.97-.076-10.74-4.982-10.65-10.945.07-5.965 4.98-10.731 10.93-10.654 5.97.081 10.74 4.977 10.66 10.944" fill="#527BEF"></path><path d="M864.88 683.3c-96.71-49.684-209.67-108.669-284.27-146.612 1.45-1.803 2.89-4.046 4.13-6.597 1.26-2.571 2.17-5.104 2.69-7.369 75.74 35.714 191.63 88.841 290.19 134.808-1.72 4.04-3.58 8.12-5.6 12.23-2.3 4.7-4.69 9.21-7.14 13.54" fill="#1C263A"></path><path d="M1011.01 738.89c-3.93 8.03-11.79 12.24-17.56 9.41-33.68-16.49-78.99-39.52-128.57-65 2.45-4.33 4.84-8.84 7.14-13.54 2.02-4.11 3.88-8.19 5.6-12.23 50.48 23.55 96.42 45.22 130.07 61.71 5.77 2.82 7.26 11.62 3.32 19.65" fill="#EF5C00"></path><path d="M538.037 499.089c13.173 6.455 29.963 14.474 49.393 23.633-.08 6.346-3.69 11.834-6.82 13.966-19.16-9.744-35.792-18.099-48.962-24.551-4.51-2.207 1.878-15.254 6.389-13.048" fill="#EDD600"></path><path d="M531.199 511.916c1.623.798 4.36-1.463 6.121-5.059 1.76-3.577 1.868-7.133.25-7.935-1.624-.79-4.365 1.471-6.126 5.066-1.756 3.587-1.872 7.139-.245 7.928" fill="#CCB027"></path><path d="M888.56 662.64l-14.01-6.54c-2.56 10.36-6.95 18.08-12.55 25.72l13.75 7.07c6.28-6.82 10.42-16.11 12.81-26.25" fill="#DDD322"></path><path d="M1036.93 605.226c-35.32 28.24-200.62 139.604-224.27 110.034-23.64-29.59 121.4-166.29 156.73-194.527 35.33-28.249 79.09-32.22 97.74-8.89 18.65 23.334 5.13 65.142-30.2 93.383" fill="#EBECED"></path><path d="M462.523 1039.66c-38.268 8.13-97.554 13.73-164.173 14.47-63.945.71-121.234-3.23-159.726-9.99l-10.246 259.39c.242 22.05 78.827 39.06 175.525 38 96.705-1.07 174.891-19.81 174.65-41.87l-16.03-260" fill="#2A3756"></path><path d="M143.841 941.59l-5.217 102.55c38.492 6.76 95.781 10.7 159.726 9.99 66.619-.74 125.905-6.34 164.173-14.47l-7.408-101.5-311.274 3.43" fill="#EF5C00"></path><g transform="translate(337 1049)"><mask id="b" fill="#fff"><use xlink:href="#a"></use></mask><path fill="#404B67" mask="url(#b)" d="M.213 291.43h66.565V.21H.213z"></path></g><path d="M338.712 1053.06l.336-64.37c19.74-.78 38.334-2.11 55.183-3.88l1.765 64.4c-17.733 1.69-36.98 3-57.284 3.85" fill="#F16D1A"></path><path d="M598.53 946.1c.41 37.66-133.094 69.65-298.197 71.47C135.23 1019.39 1.063 990.35.642 952.69c-.413-37.65 133.089-69.66 298.184-71.47 165.104-1.83 299.284 27.23 299.705 64.88" fill="#2A3756"></path><path d="M454.266 947.69c.156 14.45-68.965 26.94-154.397 27.89-85.424.94-154.813-10.02-154.972-24.47-.156-14.47 68.974-26.96 154.393-27.9 85.435-.94 154.813 10.02 154.976 24.48" fill="#1E1E1E"></path><path d="M454.266 947.69c.156 14.45-68.965 26.94-154.397 27.89-85.424.94-154.813-10.02-154.972-24.47-.156-14.47 68.974-26.96 154.393-27.9 85.435-.94 154.813 10.02 154.976 24.48" fill="#1C263A"></path><path d="M393.363 969.21c6.694-.94 12.949-1.97 18.718-3.06 15.576-89.21 42.699-258.6 51.374-299.8 6.752-32.097-11.887-72.668-43.994-79.428-32.094-6.75-65.498 22.875-72.255 54.97-9.649 45.858-16.174 255.968-25.224 333.168 6.862-.24 13.569-.56 20.106-.94 7.306-34.79 60.994-66.14 51.275-4.91M257.227 969.94c.411 1.78.695 3.47.921 5.12 6.48.23 13.128.4 19.923.49-10.872-72.35-22.095-290.97-32.918-337.678-7.402-31.956-41.394-60.9-73.349-53.498-31.965 7.402-49.776 48.336-42.378 80.296 9.692 41.86 41.469 216.8 58.692 304.07 5.785.94 12.031 1.82 18.71 2.6-10.298-54.76 42.397-35.95 50.399-1.4" fill="#FFF"></path><path d="M408.577 638.68c-18.473-3.881-37.737 13.4-43.115 38.96-7.297 34.7-16.068 261.69-23.374 296.48 18.796-1.12 36.132-2.79 51.275-4.91 9.719-61.23 32.387-246.17 38.979-277.5 5.458-25.93-5.295-49.143-23.765-53.03M227.632 673.98c-5.984-25.819-25.517-42.335-43.898-38.077-18.392 4.253-28.585 28.057-22.698 53.497 7.451 32.15 35.494 227.18 45.792 281.94 15.183 1.77 32.544 3.04 51.32 3.72-.226-1.65-.51-3.34-.921-5.12-8.002-34.55-21.607-261.41-29.595-295.96" fill="#FCCFB2"></path><path fill="#EDD600" d="M298.398 605.771l7.772-43.586 43.53-10.164-43.53-10.162-7.772-43.587-7.775 43.587-43.531 10.162 43.531 10.164 7.775 43.586M270.928 450.604l6.572-36.847 36.8-8.591-36.8-8.594-6.572-36.847-6.574 36.847-36.8 8.594 36.8 8.591 6.574 36.847M369.075 514.566l5.609-31.462 31.421-7.334-31.421-7.335-5.609-31.462-5.614 31.462-31.42 7.335 31.42 7.334 5.614 31.462"></path></g></svg>