<?xml version="1.0" encoding="utf-8"?>
<!-- Generator: Adobe Illustrator 25.2.0, SVG Export Plug-In . SVG Version: 6.00 Build 0)  -->
<svg version="1.1" id="Layer_1" xmlns="http://www.w3.org/2000/svg" xmlns:xlink="http://www.w3.org/1999/xlink" x="0px" y="0px"
	 viewBox="0 0 806.8 623.3" style="enable-background:new 0 0 806.8 623.3;" xml:space="preserve">
<style type="text/css">
	.st0{fill-rule:evenodd;clip-rule:evenodd;fill:#FDF5E5;}
	.st1{fill-rule:evenodd;clip-rule:evenodd;fill:#F8E4B4;}
	.st2{fill-rule:evenodd;clip-rule:evenodd;fill:#DB7E5E;}
	.st3{fill-rule:evenodd;clip-rule:evenodd;fill:#F8E5B5;}
	.st4{fill-rule:evenodd;clip-rule:evenodd;fill:#DA7B5F;}
	.st5{fill-rule:evenodd;clip-rule:evenodd;fill:#FEFDFB;}
	.st6{fill:none;stroke:#FFFFFF;stroke-width:0.9998;stroke-miterlimit:22.9256;stroke-dasharray:1,3;}
	.st7{fill-rule:evenodd;clip-rule:evenodd;fill:#F9E4B8;}
	.st8{fill-rule:evenodd;clip-rule:evenodd;fill:#3ACC4D;}
	.st9{fill-rule:evenodd;clip-rule:evenodd;fill:#EEB957;}
	.st10{fill-rule:evenodd;clip-rule:evenodd;fill:#E0514D;}
	.st11{fill-rule:evenodd;clip-rule:evenodd;fill:#71D880;}
	.st12{fill-rule:evenodd;clip-rule:evenodd;fill:#BBDBE7;}
	.st13{fill-rule:evenodd;clip-rule:evenodd;fill:#FFFFFF;}
	.st14{fill-rule:evenodd;clip-rule:evenodd;fill:#2C5A57;}
	.st15{fill-rule:evenodd;clip-rule:evenodd;fill:#DB6B67;}
	.st16{fill-rule:evenodd;clip-rule:evenodd;fill:#F29994;}
	.st17{fill-rule:evenodd;clip-rule:evenodd;fill:#3B7574;}
	.st18{fill-rule:evenodd;clip-rule:evenodd;fill:#5D322C;}
	.st19{fill-rule:evenodd;clip-rule:evenodd;fill:#295661;}
	.st20{fill-rule:evenodd;clip-rule:evenodd;fill:#2D5D5A;}
	.st21{fill-rule:evenodd;clip-rule:evenodd;fill:#A7C2F6;}
	.st22{fill-rule:evenodd;clip-rule:evenodd;fill:#ABC4F3;}
	.st23{fill-rule:evenodd;clip-rule:evenodd;fill:#DB6D69;}
	.st24{fill-rule:evenodd;clip-rule:evenodd;fill:#EBECED;}
	.st25{fill-rule:evenodd;clip-rule:evenodd;fill:#2A3756;}
	.st26{fill-rule:evenodd;clip-rule:evenodd;fill:#527BEF;}
</style>
<path class="st0" d="M759.8,224.3c68.3,165.1-117.5,314.3-257.3,359.9C362.6,629.8,92.3,631.6,24,466.5S114,61.7,253.8,16.1
	C393.6-29.6,691.5,59.2,759.8,224.3"/>
<path class="st1" d="M67.1,516.3c-7.4-49.1,0.7-64.8-1.1-85c-13.7-6.5-19.1-13.6-23.7-31.3c-2.6-11.3-8.2-38.5-0.9-46
	c5.3,8.9-6.6,63.7,25.4,73.2c6-26,14.9-87.9,14.5-116.3c-0.4-19.2-6.5-38-4.8-42.5c12.3,15.5,8.2,47.4,8.3,66.7
	c14.9-8.4,11.7-24.1,20-36c4.1,7.7-8,28.7-12,33.5c-8,9.7-7.8,1.6-9.6,15.3c-0.6,7.3-1.4,13.6-2.1,20.5
	c-3.8,27.2-7.9,52.7-10.3,80.5c15.8,0,34.1-13,43.6-24.4c3.4-4.3,5.2-8.6,9.8-11.3c0.1,7.4-12.9,20.2-20.2,25.8
	c-11.5,9-25.5,10.2-33.4,15.6c-2,14.2-2.1,57.6,5.5,68.6l-0.2-5.8c13-0.5,24.8-3.1,35.2-7.8c7.9-3.6,20.8-12.4,26.9-14
	c2.2-5.5,45.7-35.5,36-93.4c-2.9-17.7-8.7-22.7-13.9-35.6c-5.8-3.2-10.6-10.3-17.2-14.5c-8.1-4.9-11.5-5.3-21.4-8.6
	c0.2-26.7,8.3-50,8.9-75.9c1.7-78.9-76.9-94.6-82.6-38.3c-2.9,28.9,6.3,59.8,2.8,87c-4.1-0.5-37.8-19.4-40.8,31.9
	c-0.5,13.1,0.8,26.8,3.8,40c4.6,22.9,0.4,16.7-7,32.8C-15.7,469.3,22.4,514.7,67.1,516.3 M121,260.6c-2.3-15.8-8.1-30.4-16.4-41.3
	c-11.6-15.1-15.3-13-33.4-19.2c14.7-3,22.9-0.2,31.9,6.8c28.8,22.3,27.6,72.6,18.8,95.6L121,260.6z M156.3,372l2.6,1.6
	c12.6,10.5,15,45.3,11.4,62.9c-3.7,18.5-16.1,39.7-28.9,49c2.7-9.6,13.2-18,17.8-46.7c1.6-9.6,2.3-19.4,0.8-29.5
	c-1.1-9.9-6.3-20.4-6.3-29.3c-5.6-3.7-8.6-15.3-24.2-30.3C136.8,351,158.4,362.9,156.3,372z"/>
<path class="st2" d="M67.1,516.3c3.2,15,9.8,30.6,11.9,42.6c2.8,0.5-0.1,1.6,3.3-0.5c4.9-3.2,1.4,0,3.4-4.1
	c-4.1-9.9-9-20.2-9.6-31.3c-7.6-11-7.5-54.5-5.5-68.6c8-5.4,21.9-6.5,33.4-15.6c7.3-5.5,20.2-18.4,20.2-25.8
	c-4.7,2.7-6.4,7-9.8,11.3c-9.5,11.4-27.8,24.4-43.6,24.4c2.4-27.9,6.4-53.3,10.3-80.5c0.7-6.8,1.5-13.2,2.1-20.5
	c1.7-13.7,1.5-5.6,9.6-15.3c4-4.8,16.1-25.8,12-33.5c-8.4,12-5.1,27.6-20,36c-0.1-19.3,4.1-51.2-8.3-66.7
	c-1.7,4.5,4.4,23.3,4.8,42.5c0.4,28.4-8.5,90.4-14.5,116.3c-32-9.5-20-64.3-25.4-73.2c-7.3,7.6-1.7,34.7,0.9,46
	c4.6,17.7,10,24.8,23.7,31.3C67.8,451.5,59.7,467.2,67.1,516.3"/>
<path class="st1" d="M598.8,489.4c7.1-78.3,25.6-99.4,30.3-131c-18.6-15.2-24.3-28.1-24.6-57c0.2-18.3,1.9-62.2,16-71.1
	c4.8,15.6-34.2,95.3,11.4,122c19-37.6,56.1-129.5,66.2-173.3c6.6-29.7,4.4-60.9,8.7-67.2c13.1,28.4-5.3,76-12.5,105.6
	c26.1-7.3,27-32.6,44.4-47.8c3.5,13.4-23.1,41.1-31.1,47c-16,11.8-12.7-0.5-20.5,19.9c-3.7,10.9-7.3,20.4-10.9,30.7
	c-16.1,40.4-32,77.9-46.2,119.9c24.3,5.9,57.3-7.1,76.2-21.1c6.9-5.3,11.2-11.2,19.3-13.6c-2.7,11.4-27.5,26.2-40.7,32
	c-21.1,9.6-42.9,6-57.2,11.3c-8.4,21-25,87.8-17.4,107.6l1.9-9c20.2,4.1,39.3,4.5,57.1,1.4c13.5-2.6,36.6-11.2,46.6-11.3
	c5.5-7.6,83.6-37.3,90.6-130c2.2-28.3-4.7-38.2-7.9-60c-7.8-7.1-12.3-19.9-21-28.8c-10.6-10.6-15.7-12.5-29.7-21.2
	c10.4-40.9,31.6-73.8,42.3-113.2c32.4-120.5-82.5-174.4-112.4-90c-15.4,43.3-12.9,94.3-28.5,134.7c-6.1-2.4-50.8-44.1-74.8,33.6
	c-5.7,19.9-8.8,41.4-9.3,62.9c-1.5,36.9-5.7,25.9-23.2,47.8C489.3,386,530.8,470.1,598.8,489.4 M778.2,116.8
	c2.5-25.1-1-49.8-9.6-69.7c-12.1-27.6-18.7-25.8-44.1-42c23.7,0.9,35.2,8.4,46.5,22.5c35.8,45.1,15.1,122-7.1,154L778.2,116.8z
	 M790.4,301.3l3.4,3.5c15.4,20.9,5.9,75.3-6.2,100.9c-12.7,27-39.8,55-63,64.3c7.7-13.7,27.1-22.7,45-65c6.2-14.2,10.8-28.9,12.3-45
	c2.1-15.7-2-33.7,1.5-47.4c-7.2-7.8-7.4-26.8-25.8-55.7C768.3,261.7,796.9,288.2,790.4,301.3z"/>
<path class="st2" d="M598.8,489.4c-0.8,24.2,3.5,50.7,2.2,70c4.1,1.8-0.8,2.4,5.2,0.5c8.8-3,2.1,0.6,6.8-5
	c-2.6-16.8-6.2-34.4-2.9-51.7c-7.6-19.8,9-86.5,17.4-107.6c14.3-5.3,36.2-1.7,57.2-11.3c13.3-5.8,38-20.6,40.7-32
	c-8.2,2.4-12.5,8.3-19.3,13.6c-18.8,14-51.9,27-76.2,21.1c14.2-42,30-79.5,46.2-119.9c3.6-10.2,7.2-19.7,10.9-30.7
	c7.8-20.4,4.5-8,20.5-19.9c8-5.9,34.5-33.6,31.1-47c-17.4,15.2-18.3,40.5-44.4,47.8c7.1-29.6,25.6-77.2,12.5-105.6
	c-4.3,6.3-2.1,37.5-8.7,67.2c-10.1,43.8-47.2,135.7-66.2,173.3c-45.6-26.7-6.5-106.4-11.4-122c-14.1,8.8-15.8,52.7-16,71.1
	c0.3,28.9,6,41.8,24.6,57C624.4,390.1,605.9,411.2,598.8,489.4"/>
<path class="st3" d="M498.5,524.1c3.7-1.8,2.7-0.9,4.7-3.3c17.7-5.5,23.6-12,47.6-11.1c49.6,2,80.3,41.5,75.3,96.2l-28-0.2
	c2-4.4,7-11.5,3.3-17.3c-5,8-1.3,16.8-13.7,17.5c-3-4.4-4.3-13.1-7-18c-28-50.1-100.2-13.3-114.2,16
	c-2.7-15.1-58.3-100.9-139.5-86.5l2.3-92.9c-6.7-33.3-14-43.2,37-38.1c35.3,8.2,54.3,10,82.9,44.1
	C473.5,460.9,485.5,480.2,498.5,524.1"/>
<path class="st1" d="M199.7,618.5c4.7-3.8,37.3-17.5,46.6-22.4c28.4-15,59.4-21.3,74.1-28.2c6.9,3.4,23.1,12.4,31.2,13.8
	c10.7,2,31-3.5,40.6-3.3l62.6,23.1c-31.7-76.1-115-98.7-180-59c-28.3,17.1-67.3,49.7-85.6,75.6L199.7,618.5z"/>
<path class="st4" d="M407.3,618.3L407.3,618.3l67.5-0.2c123.9,11.1,149.2,3.3,151.2-12.2c-13,4.2-50.5,6.2-50.3-9.1
	c0.4-27.7-75.1-39.5-120.8,4.7c-40.9-37.2-127.5-56.9-208.6-5.3c-9.3,4.9-42,18.6-46.6,22.4C268.9,618.5,338.1,618.5,407.3,618.3"/>
<path class="st3" d="M164.7,523.6c0.7,5.1-1.7,8-3.3,12.6c-3.7-1.8-2.7-0.9-4.7-3.3c-17.7-5.5-23.6-12-47.6-11.1
	c-49.6,2-80.3,41.5-75.3,96.2l28-0.2c-2-4.4-7-11.5-3.3-17.3c5,8,1.3,16.8,13.7,17.5c3-4.4,4.3-13.1,7-18
	c28-50.1,89.3-12,103.2,17.3c9-5.1,72.6-101.3,144.5-100l3.7-80.7c6.7-33.3,14-43.2-37-38.1c-35.3,8.2-54.3,10-82.9,44.1
	c-10.3,12.4-17.3,22.8-25,38.8C180.4,492.4,169,522.1,164.7,523.6"/>
<path class="st3" d="M179.4,617.9c-6.3-11.3-32-35-51.6-38.4c-26.3-4.2-50,15.7-50.3,38.6L179.4,617.9z"/>
<path class="st5" d="M603.4,312.7l-5,41.7c12-21.5,20.3-71.2-5-97.3c-8-8.2-15.7-12.2-30.6-11.3c17,8.6,21,7.1,30.3,23.7
	C599.7,281.4,603.4,296.7,603.4,312.7"/>
<path class="st5" d="M618.7,435.5c1.7-3.5,2.3-4,3.7-7.5c3.3-8.6-16.3-23.5-23.3-25.9C612.4,419.1,613.7,431.1,618.7,435.5"/>
<polyline class="st6" points="350.9,87.7 350.9,234.9 405.3,282.2 "/>
<g>
	
		<image style="overflow:visible;opacity:0.75;" width="1537" height="1394" xlink:href="AD0B68E1.png"  transform="matrix(0.24 0 0 0.24 236.2269 17.5799)">
	</image>
	<g>
		<path class="st4" d="M278.6,22.3c73.9,11.5,135.5,21,187.5,29c44.5,6.9,83,12.9,116.7,18.1c7.9,1.2,14.2,11.6,14.2,23
			c0,25.9,0,51.8,0,77.5c0,25.6,0,51.2,0,76.6c0,11.1-6.2,21.7-14,23.6c-33.1,8.1-70.9,17.4-114.4,28.1
			c-50.7,12.4-110.5,27.1-182.1,44.6c-20.4,5-38.3-6.1-38.8-25.1c-1.2-43.4-2.4-87.2-3.7-131.2c-1.2-44.3-2.5-89-3.8-134
			C239.8,32.5,257.5,19,278.6,22.3"/>
	</g>
</g>
<path class="st7" d="M241.8,100.7c91.1,5.1,164.6,9.2,225,12.5c50.4,2.8,93.4,5.1,130.3,7.1c0-9.3,0-18.5,0-27.8
	c0-11.4-6.3-21.8-14.2-23c-33.7-5.2-72.2-11.2-116.7-18.1c-52-8.1-113.6-17.6-187.5-29c-21.1-3.3-38.8,10.2-38.2,30.1
	C240.9,68.5,241.3,84.6,241.8,100.7"/>
<path class="st8" d="M537,82.4c3.1,0.4,5.5,3.9,5.5,8c0,4.1-2.4,7.1-5.4,6.9c-3.1-0.3-5.5-3.9-5.6-8C531.5,85.1,534,82,537,82.4"/>
<path class="st9" d="M557.4,84.8c2.8,0.3,5,3.8,5.1,7.7c0,3.9-2.2,6.9-5,6.6c-2.8-0.3-5.1-3.7-5.2-7.7
	C552.3,87.4,554.6,84.5,557.4,84.8"/>
<path class="st10" d="M573.7,86.7c2.6,0.3,4.7,3.6,4.7,7.4c0,3.8-2.1,6.7-4.7,6.4c-2.6-0.2-4.8-3.6-4.8-7.4
	C568.9,89.3,571.1,86.4,573.7,86.7"/>
<path class="st11" d="M483.7,133.4c12.7,0.3,24.7,0.6,36.3,0.8c3.1,0.1,5.6,3.4,5.6,7.4c0,4-2.4,7.2-5.5,7.2
	c-11.6,0-23.6,0.1-36.2,0.1c-3.5,0-6.4-3.5-6.4-7.8C477.4,136.8,480.2,133.3,483.7,133.4"/>
<path class="st11" d="M483.9,154.7c12.6-0.2,24.6-0.3,36.3-0.5c3.1,0,5.6,3.2,5.6,7.1c0,4-2.4,7.3-5.5,7.4
	c-11.6,0.4-23.6,0.9-36.2,1.4c-3.5,0.1-6.4-3.3-6.4-7.6C477.6,158.3,480.4,154.7,483.9,154.7"/>
<path class="st11" d="M484.1,176.6c12.6-0.6,24.6-1.2,36.2-1.8c3.1-0.2,5.6,3,5.6,6.9c0,4-2.4,7.4-5.5,7.6
	c-11.6,0.9-23.5,1.8-36.1,2.7c-3.5,0.3-6.4-3-6.4-7.3C477.8,180.4,480.6,176.8,484.1,176.6"/>
<path class="st11" d="M484.3,199.3c12.6-1.1,24.6-2.2,36.1-3.2c3.1-0.3,5.6,2.7,5.6,6.7c0,3.9-2.4,7.4-5.5,7.8
	c-11.5,1.3-23.5,2.7-36,4.1c-3.5,0.4-6.3-2.7-6.4-7C478,203.4,480.8,199.6,484.3,199.3"/>
<path class="st11" d="M484.5,222.2c12.6-1.6,24.5-3,36.1-4.5c3.1-0.4,5.5,2.5,5.5,6.4c0,3.9-2.4,7.5-5.5,7.9
	c-11.5,1.7-23.4,3.5-36,5.4c-3.5,0.5-6.4-2.5-6.4-6.8C478.2,226.4,481,222.6,484.5,222.2"/>
<path class="st12" d="M318.2,135.9c30.2,0.5,58.1,0.9,83.9,1.3c24,0.4,46.4,0.7,67.4,1c0,2,0,3.9,0,5.8c-20.9-0.1-43.3-0.2-67.3-0.4
	c-25.8-0.1-53.7-0.3-83.8-0.5C318.4,140.7,318.3,138.3,318.2,135.9"/>
<path class="st12" d="M318.2,163c30.1-0.6,58-1.2,83.8-1.7c24-0.5,46.4-0.9,67.3-1.4c0,1.9,0,3.9,0,5.8c-20.9,0.6-43.3,1.3-67.3,2
	c-25.8,0.8-53.6,1.6-83.7,2.5C318.3,167.8,318.3,165.4,318.2,163"/>
<path class="st12" d="M318.2,191c30.1-1.7,57.9-3.3,83.7-4.7c24-1.4,46.3-2.6,67.2-3.8c0,1.9,0,3.9,0,5.8
	c-20.9,1.4-43.2,2.9-67.2,4.5c-25.8,1.7-53.6,3.5-83.6,5.5C318.3,195.8,318.2,193.4,318.2,191"/>
<path class="st12" d="M319.3,219.8c30-2.8,57.7-5.5,83.4-7.9c23.9-2.3,46.2-4.4,67-6.3c0,1.9,0.1,3.8,0.1,5.7
	c-20.8,2.2-43.1,4.5-67,7c-25.7,2.7-53.4,5.5-83.3,8.7C319.4,224.6,319.3,222.2,319.3,219.8"/>
<path class="st4" d="M559.7,122.3c10.9,0.5,21.4,1,31.6,1.5c0,1.6,0,3.1,0,4.7c-10.1-0.4-20.6-0.8-31.6-1.2
	C559.6,125.6,559.6,124,559.7,122.3"/>
<path class="st13" d="M486.3,136.4c2.1,0,3.9,2.2,3.9,4.8c0,2.6-1.7,4.7-3.8,4.7c-2.2,0-4-2.2-4-4.8
	C482.3,138.5,484.1,136.4,486.3,136.4"/>
<path class="st11" d="M484.4,141.2c0.6,0.5,1.2,1,1.8,1.5c-0.2,0.3-0.3,0.5-0.4,0.8c-0.6-0.5-1.2-1-1.8-1.5
	C484.1,141.7,484.3,141.5,484.4,141.2"/>
<path class="st11" d="M485.2,142.8c0.9-1.3,1.9-2.6,2.8-3.9c0.2,0.2,0.4,0.5,0.6,0.7c-0.9,1.3-1.8,2.6-2.8,3.9
	C485.6,143.2,485.4,143,485.2,142.8"/>
<path class="st13" d="M486.1,157.9c2.2,0,3.9,2,3.9,4.7c0,2.6-1.6,4.8-3.8,4.9c-2.2,0.1-3.9-2-4-4.7
	C482.1,160.1,483.9,158,486.1,157.9"/>
<path class="st11" d="M484.2,162.7c0.6,0.5,1.2,0.9,1.8,1.4c-0.2,0.3-0.3,0.6-0.4,0.8c-0.6-0.5-1.2-0.9-1.8-1.4
	C484,163.3,484.1,163,484.2,162.7"/>
<path class="st11" d="M485,164.3c0.9-1.3,1.9-2.6,2.8-3.9c0.2,0.2,0.4,0.4,0.6,0.7c-0.9,1.3-1.9,2.6-2.8,3.9
	C485.4,164.7,485.2,164.5,485,164.3"/>
<path class="st13" d="M486.7,179.5c2.2-0.1,3.9,1.9,3.9,4.5c0,2.6-1.6,4.8-3.8,5c-2.1,0.1-3.9-1.9-4-4.5
	C482.8,181.9,484.5,179.6,486.7,179.5"/>
<path class="st11" d="M484.9,184.4c0.6,0.4,1.2,0.9,1.8,1.3c-0.1,0.3-0.3,0.6-0.4,0.8c-0.6-0.4-1.2-0.9-1.8-1.3
	C484.6,184.9,484.7,184.7,484.9,184.4"/>
<path class="st11" d="M485.6,185.9c0.9-1.3,1.9-2.7,2.8-4c0.2,0.2,0.4,0.4,0.6,0.6c-0.9,1.3-1.9,2.7-2.8,4
	C486,186.3,485.8,186.1,485.6,185.9"/>
<path class="st13" d="M486.2,202.3c2.1-0.2,3.9,1.7,3.9,4.3c0,2.6-1.6,4.9-3.8,5.1c-2.1,0.2-4-1.7-4-4.4
	C482.3,204.8,484.1,202.5,486.2,202.3"/>
<path class="st11" d="M484.4,207.3c0.6,0.4,1.2,0.8,1.8,1.2c-0.1,0.3-0.3,0.6-0.4,0.9c-0.6-0.4-1.2-0.8-1.8-1.2
	C484.1,207.8,484.2,207.6,484.4,207.3"/>
<path class="st11" d="M485.1,208.8c0.9-1.4,1.9-2.8,2.8-4.1c0.2,0.2,0.4,0.4,0.6,0.6c-0.9,1.4-1.9,2.7-2.8,4.1
	C485.5,209.2,485.3,209,485.1,208.8"/>
<g>
	
		<image style="overflow:visible;opacity:0.75;" width="1537" height="1394" xlink:href="AD0B68E3.png"  transform="matrix(0.24 0 0 0.24 283.5069 121.0199)">
	</image>
	<g>
		<path class="st4" d="M325.8,125.2c73.9,3,135.5,5.6,187.5,7.7c44.5,1.8,83,3.4,116.7,4.8c7.9,0.3,14.2,10,14.2,21.4
			c0,25.9,0,51.8,0,77.5c0,25.6,0,51.2,0,76.6c0,11.1-6.2,22.4-14,25.2c-33.1,11.9-70.9,25.5-114.4,41.1
			c-50.7,18.2-110.5,39.7-182.1,65.4c-20.4,7.3-38.3-1.8-38.8-20.7c-1.2-43.3-2.4-86.9-3.7-130.8c-1.2-44.2-2.5-88.8-3.8-133.6
			C287,139.9,304.7,124.4,325.8,125.2"/>
	</g>
</g>
<path class="st7" d="M288.9,207.8c91.1-5.3,164.6-9.6,225-13.1c50.4-3,93.4-5.5,130.3-7.7c0-9.3,0-18.5,0-27.8
	c0-11.4-6.3-21.1-14.2-21.4c-33.7-1.4-72.2-3-116.7-4.8c-52-2.1-113.6-4.7-187.5-7.7c-21.1-0.9-38.8,14.7-38.2,34.4
	C288,175.7,288.5,191.8,288.9,207.8"/>
<path class="st8" d="M584.2,155.9c3.1,0,5.5,3.3,5.5,7.3c0,4.1-2.4,7.4-5.4,7.5c-3.1,0.1-5.5-3.2-5.6-7.4
	C578.7,159.2,581.2,155.9,584.2,155.9"/>
<path class="st9" d="M604.6,156c2.8,0,5,3.2,5.1,7.1c0,3.9-2.2,7.1-5,7.2c-2.8,0.1-5.1-3.1-5.2-7.1
	C599.5,159.2,601.8,155.9,604.6,156"/>
<path class="st10" d="M620.9,156c2.6,0,4.7,3.1,4.7,6.8c0,3.8-2.1,6.9-4.7,7c-2.6,0.1-4.8-3-4.8-6.9C616,159.1,618.2,156,620.9,156"
	/>
<path class="st4" d="M530.9,213c12.7-1.1,24.7-2.3,36.3-3.3c3.1-0.3,5.6,2.7,5.6,6.7c0,4-2.4,7.5-5.5,7.9
	c-11.6,1.3-23.6,2.8-36.2,4.3c-3.5,0.4-6.4-2.8-6.4-7.1C524.6,217.1,527.4,213.3,530.9,213"/>
<path class="st11" d="M531.3,256.1c12.6-2,24.6-4,36.2-5.9c3.1-0.5,5.6,2.3,5.6,6.3c0,4-2.4,7.6-5.5,8.2
	c-11.6,2.2-23.5,4.5-36.1,6.8c-3.5,0.7-6.4-2.3-6.4-6.6C525,260.7,527.8,256.7,531.3,256.1"/>
<path class="st11" d="M531.5,278.8c12.6-2.5,24.6-5,36.1-7.3c3.1-0.6,5.6,2.1,5.6,6c0,3.9-2.4,7.7-5.5,8.4
	c-11.5,2.6-23.5,5.3-36,8.2c-3.5,0.8-6.3-2-6.4-6.3C525.2,283.6,528,279.5,531.5,278.8"/>
<path class="st11" d="M531.7,301.6c12.6-3,24.5-5.8,36.1-8.6c3.1-0.7,5.5,1.9,5.5,5.8c0,3.9-2.4,7.7-5.5,8.6
	c-11.5,3-23.4,6.2-36,9.5c-3.5,0.9-6.4-1.8-6.4-6.1C525.4,306.6,528.2,302.5,531.7,301.6"/>
<path class="st12" d="M365.4,234.3c30.2-3,58.1-5.7,83.9-8.3c24-2.4,46.4-4.6,67.4-6.7c0,2,0,3.9,0,5.8c-20.9,2.3-43.3,4.7-67.3,7.3
	c-25.8,2.8-53.7,5.8-83.8,9.1C365.5,239.1,365.5,236.7,365.4,234.3"/>
<path class="st12" d="M365.4,261.4c30.1-4,58-7.8,83.8-11.3c24-3.2,46.4-6.2,67.3-9.1c0,1.9,0,3.9,0,5.8c-20.9,3-43.3,6.2-67.3,9.7
	c-25.8,3.7-53.6,7.7-83.7,12C365.5,266.2,365.4,263.8,365.4,261.4"/>
<path class="st12" d="M365.4,289.4c30.1-5.1,57.9-9.9,83.7-14.3c24-4.1,46.3-7.9,67.2-11.5c0,1.9,0,3.9,0,5.8
	c-20.9,3.8-43.2,7.8-67.2,12.1c-25.8,4.7-53.6,9.6-83.6,15.1C365.5,294.2,365.4,291.8,365.4,289.4"/>
<path class="st12" d="M366.4,318.1c30-6.2,57.7-12,83.4-17.4c23.9-5,46.2-9.6,67-14c0,1.9,0.1,3.8,0.1,5.7
	c-20.8,4.6-43.1,9.4-67,14.6c-25.7,5.6-53.4,11.6-83.3,18.2C366.6,322.9,366.5,320.5,366.4,318.1"/>
<path class="st12" d="M606.8,193.2c10.9-0.7,21.4-1.4,31.6-2.1c0,1.6,0,3.1,0,4.7c-10.1,0.8-20.6,1.6-31.6,2.4
	C606.8,196.6,606.8,194.9,606.8,193.2"/>
<path class="st13" d="M533.4,215.7c2.1-0.2,3.9,1.8,3.9,4.4c0,2.6-1.7,4.9-3.8,5.2c-2.2,0.2-4-1.7-4-4.4
	C529.5,218.2,531.3,215.9,533.4,215.7"/>
<path class="st11" d="M531.6,220.7c0.6,0.4,1.2,0.8,1.8,1.3c-0.2,0.3-0.3,0.6-0.5,0.9c-0.6-0.4-1.2-0.9-1.8-1.3
	C531.3,221.3,531.5,221,531.6,220.7"/>
<path class="st11" d="M532.4,222.2c0.9-1.4,1.9-2.8,2.8-4.2c0.2,0.2,0.4,0.4,0.6,0.6c-0.9,1.4-1.8,2.8-2.8,4.2
	C532.8,222.6,532.6,222.4,532.4,222.2"/>
<path class="st13" d="M533.3,237.2c2.2-0.3,3.9,1.6,3.9,4.2c0,2.6-1.6,5-3.8,5.3c-2.2,0.3-3.9-1.5-4-4.2
	C529.3,239.9,531.1,237.5,533.3,237.2"/>
<path class="st11" d="M531.4,242.2c0.6,0.4,1.2,0.8,1.8,1.2c-0.2,0.3-0.3,0.6-0.4,0.9c-0.6-0.4-1.2-0.8-1.8-1.2
	C531.1,242.8,531.3,242.5,531.4,242.2"/>
<path class="st11" d="M532.2,243.7c0.9-1.4,1.9-2.8,2.8-4.3c0.2,0.2,0.4,0.4,0.6,0.6c-0.9,1.4-1.9,2.8-2.8,4.2
	C532.6,244.1,532.4,243.9,532.2,243.7"/>
<path class="st13" d="M533.9,258.8c2.2-0.4,3.9,1.5,3.9,4.1c0,2.6-1.6,5-3.8,5.4c-2.1,0.4-3.9-1.4-4-4
	C530,261.5,531.7,259.1,533.9,258.8"/>
<path class="st11" d="M532.1,263.8c0.6,0.4,1.2,0.8,1.8,1.1c-0.1,0.3-0.3,0.6-0.4,0.9c-0.6-0.4-1.2-0.7-1.8-1.1
	C531.8,264.4,531.9,264.1,532.1,263.8"/>
<path class="st11" d="M532.8,265.3c0.9-1.4,1.9-2.9,2.8-4.3c0.2,0.2,0.4,0.4,0.6,0.5c-0.9,1.4-1.9,2.9-2.8,4.3
	C533.2,265.6,533,265.5,532.8,265.3"/>
<path class="st13" d="M533.4,281.6c2.1-0.4,3.9,1.3,3.9,3.9c0,2.6-1.6,5.1-3.8,5.6c-2.1,0.5-4-1.3-4-3.9
	C529.5,284.5,531.2,282.1,533.4,281.6"/>
<path class="st11" d="M531.5,286.7c0.6,0.4,1.2,0.7,1.8,1c-0.1,0.3-0.3,0.6-0.4,0.9c-0.6-0.4-1.2-0.7-1.8-1
	C531.2,287.4,531.4,287.1,531.5,286.7"/>
<path class="st11" d="M532.3,288.2c0.9-1.5,1.9-3,2.8-4.5c0.2,0.2,0.4,0.4,0.6,0.5c-0.9,1.5-1.9,3-2.8,4.4
	C532.7,288.5,532.5,288.3,532.3,288.2"/>
<g>
	
		<image style="overflow:visible;opacity:0.75;" width="1537" height="1549" xlink:href="AD0B68E6.png"  transform="matrix(0.24 0 0 0.24 336.5469 213.1799)">
	</image>
	<g>
		<path class="st4" d="M378.9,253.3c73.9-8.7,135.5-16,187.5-22.1c44.5-5.2,83-9.8,116.7-13.8c7.9-0.9,14.2,7.7,14.2,19.1
			c0,25.9,0,51.8,0,77.5c0,25.6,0,51.1,0,76.6c0,11.1-6.2,23.4-14,27.4c-33.1,17.2-70.9,36.7-114.4,59.3
			c-50.7,26.3-110.5,57.3-182.1,94.3c-20.4,10.6-38.3,4.3-38.8-14.6c-1.2-43.1-2.4-86.5-3.7-130.2c-1.2-44-2.5-88.4-3.8-133
			C340.1,274.2,357.7,255.8,378.9,253.3"/>
	</g>
</g>
<path class="st7" d="M342,341.8c91.1-19.8,164.6-35.7,225-48.9c50.4-11,93.4-20.4,130.3-28.4c0-9.3,0-18.5,0-27.8
	c0-11.4-6.3-20.1-14.2-19.1c-33.7,4-72.2,8.5-116.7,13.8c-52,6.1-113.6,13.4-187.5,22.1c-21.1,2.5-38.8,20.8-38.2,40.5
	C341.1,309.9,341.5,325.9,342,341.8"/>
<path class="st8" d="M637.3,242.9c3-0.5,5.5,2.4,5.5,6.5c0,4.1-2.4,7.8-5.4,8.3c-3.1,0.6-5.5-2.4-5.6-6.5
	C631.7,247.1,634.2,243.4,637.3,242.9"/>
<path class="st9" d="M657.7,239.8c2.8-0.4,5,2.4,5.1,6.3c0,3.9-2.2,7.5-5,8c-2.8,0.5-5.1-2.3-5.2-6.3
	C652.5,243.8,654.9,240.2,657.7,239.8"/>
<path class="st10" d="M673.9,237.3c2.6-0.4,4.7,2.3,4.7,6.1c0,3.8-2.1,7.3-4.7,7.7c-2.6,0.5-4.8-2.3-4.8-6.1
	C669.1,241.1,671.3,237.7,673.9,237.3"/>
<path class="st4" d="M583.9,308.5c12.7-3.2,24.7-6.2,36.3-9.1c3.1-0.8,5.6,1.9,5.6,5.8c0,4-2.4,7.9-5.5,8.8
	c-11.6,3.2-23.6,6.5-36.2,10c-3.5,1-6.4-1.8-6.4-6.1C577.6,313.6,580.4,309.4,583.9,308.5"/>
<path class="st4" d="M584.1,329.7c12.6-3.6,24.7-7,36.3-10.3c3.1-0.9,5.6,1.7,5.6,5.6c0,3.9-2.4,8-5.5,8.9
	c-11.6,3.6-23.6,7.4-36.2,11.3c-3.5,1.1-6.4-1.5-6.4-5.8C577.8,335,580.6,330.7,584.1,329.7"/>
<path class="st4" d="M584.3,351.6c12.6-4,24.6-7.9,36.2-11.7c3.1-1,5.6,1.5,5.6,5.4c0,4-2.4,8-5.5,9.1c-11.6,4-23.5,8.2-36.1,12.6
	c-3.5,1.2-6.4-1.3-6.4-5.6C578,357.1,580.8,352.7,584.3,351.6"/>
<path class="st4" d="M584.5,374.3c12.6-4.5,24.6-8.9,36.1-13c3.1-1.1,5.6,1.2,5.6,5.2c0,3.9-2.4,8.1-5.5,9.3
	c-11.5,4.4-23.5,9.1-36,13.9c-3.5,1.3-6.3-1-6.4-5.3C578.3,380,581.1,375.5,584.5,374.3"/>
<path class="st4" d="M584.7,397c12.6-5,24.5-9.7,36.1-14.3c3.1-1.2,5.5,1,5.5,4.9c0,3.9-2.4,8.1-5.5,9.4c-11.5,4.9-23.4,9.9-36,15.2
	c-3.5,1.5-6.4-0.8-6.4-5C578.5,403,581.2,398.4,584.7,397"/>
<path class="st12" d="M418.5,356.1c30.2-7.8,58.1-15,83.9-21.6c24-6.2,46.4-12,67.4-17.4c0,2,0,3.9,0,5.8
	c-20.9,5.6-43.3,11.6-67.3,18c-25.8,6.9-53.7,14.3-83.8,22.4C418.6,360.9,418.5,358.5,418.5,356.1"/>
<path class="st12" d="M418.4,383.2c30.1-8.8,58-17,83.8-24.6c24-7,46.4-13.6,67.3-19.7c0,1.9,0,3.9,0,5.8
	c-20.9,6.3-43.3,13.1-67.3,20.4c-25.8,7.8-53.6,16.2-83.7,25.3C418.6,388,418.5,385.6,418.4,383.2"/>
<path class="st12" d="M418.4,411.2c30.1-9.9,57.9-19.1,83.7-27.6c24-7.9,46.3-15.3,67.2-22.2c0,1.9,0,3.9,0,5.8
	c-20.9,7.1-43.2,14.7-67.2,22.8c-25.8,8.7-53.6,18.2-83.6,28.3C418.5,416,418.5,413.6,418.4,411.2"/>
<path class="st12" d="M419.5,439.8c30-11,57.7-21.2,83.4-30.6c23.9-8.8,46.2-17,67-24.6c0,1.9,0.1,3.8,0.1,5.7
	c-20.8,7.9-43.1,16.3-67,25.3c-25.7,9.7-53.4,20.1-83.3,31.4C419.6,444.5,419.6,442.2,419.5,439.8"/>
<path class="st12" d="M659.9,276.7c10.9-2.5,21.4-4.9,31.6-7.1c0,1.6,0,3.1,0,4.7c-10.1,2.4-20.6,4.9-31.6,7.5
	C659.9,280,659.9,278.4,659.9,276.7"/>
<path class="st13" d="M586.5,310.8c2.1-0.6,3.9,1.1,3.9,3.8c0,2.6-1.7,5.2-3.8,5.8c-2.2,0.6-4-1.1-4-3.7
	C582.6,314,584.4,311.4,586.5,310.8"/>
<path class="st4" d="M584.7,316.1c0.6,0.3,1.2,0.6,1.8,1c-0.2,0.3-0.3,0.6-0.5,1c-0.6-0.3-1.2-0.7-1.8-1
	C584.3,316.7,584.5,316.4,584.7,316.1"/>
<path class="st4" d="M585.4,317.5c0.9-1.5,1.9-3.1,2.8-4.6c0.2,0.2,0.4,0.4,0.6,0.5c-0.9,1.5-1.8,3.1-2.8,4.6
	C585.8,317.8,585.6,317.7,585.4,317.5"/>
<path class="st13" d="M586.3,332.4c2.2-0.6,3.9,1,3.9,3.6c0,2.6-1.6,5.2-3.8,5.9c-2.2,0.7-3.9-0.9-4-3.6
	C582.4,335.6,584.2,333,586.3,332.4"/>
<path class="st4" d="M584.5,337.7c0.6,0.3,1.2,0.6,1.8,0.9c-0.2,0.3-0.3,0.6-0.4,0.9c-0.6-0.3-1.2-0.6-1.8-0.9
	C584.2,338.3,584.3,338,584.5,337.7"/>
<path class="st4" d="M585.3,339c0.9-1.6,1.9-3.1,2.8-4.7c0.2,0.2,0.4,0.3,0.6,0.5c-0.9,1.6-1.9,3.1-2.8,4.7
	C585.6,339.4,585.4,339.2,585.3,339"/>
<path class="st13" d="M586.9,353.8c2.2-0.7,3.9,0.8,3.9,3.4c0,2.6-1.6,5.3-3.8,6c-2.1,0.7-3.9-0.8-4-3.4
	C583,357.2,584.8,354.5,586.9,353.8"/>
<path class="st11" d="M585.1,359.1c0.6,0.3,1.2,0.6,1.8,0.8c-0.1,0.3-0.3,0.7-0.4,1c-0.6-0.3-1.2-0.6-1.8-0.8
	C584.8,359.8,585,359.5,585.1,359.1"/>
<path class="st11" d="M585.9,360.5c0.9-1.6,1.9-3.2,2.8-4.8c0.2,0.2,0.4,0.3,0.6,0.4c-0.9,1.6-1.9,3.2-2.8,4.8
	C586.2,360.8,586,360.7,585.9,360.5"/>
<path class="st13" d="M586.4,376.7c2.1-0.8,3.9,0.7,3.9,3.3c0,2.6-1.6,5.4-3.8,6.2c-2.1,0.8-4-0.6-4-3.3
	C582.5,380.3,584.3,377.5,586.4,376.7"/>
<path class="st11" d="M584.6,382.2c0.6,0.3,1.2,0.5,1.8,0.8c-0.1,0.3-0.3,0.7-0.4,1c-0.6-0.3-1.2-0.5-1.8-0.8
	C584.3,382.8,584.5,382.5,584.6,382.2"/>
<path class="st11" d="M585.4,383.5c0.9-1.6,1.9-3.3,2.8-4.9c0.2,0.2,0.4,0.3,0.6,0.5c-0.9,1.6-1.9,3.3-2.8,4.9
	C585.8,383.8,585.5,383.6,585.4,383.5"/>
<path class="st4" d="M365.8,297.9c4.1,2.2,8.2,4.3,12.4,6.5c-1.2,2.2-2.1,4.3-3,6.5c-4.1-2.3-8-4.5-12.1-6.7
	C363.7,302.2,364.8,300.1,365.8,297.9"/>
<path class="st4" d="M370.9,307.4c6.4-10.4,12.7-20.8,19.1-31.4c1.2,1.3,2.4,2.4,3.9,3.5c-6.1,10.5-12.5,20.9-18.9,31.3
	C373.6,309.6,372.4,308.5,370.9,307.4"/>
<path class="st4" d="M323.8,167.2c4.1,2.2,8.2,4.3,12.4,6.5c-1.2,2.2-2.1,4.3-3,6.5c-4.1-2.3-8-4.5-12.1-6.7
	C321.6,171.5,322.8,169.4,323.8,167.2"/>
<path class="st4" d="M328.9,176.7c6.4-10.4,12.7-20.8,19.1-31.4c1.2,1.3,2.4,2.4,3.9,3.5c-6.1,10.5-12.5,20.9-18.9,31.3
	C331.6,179,330.4,177.8,328.9,176.7"/>
<path class="st4" d="M266.4,63.2c4.1,2.2,8.2,4.3,12.4,6.5c-1.2,2.2-2.1,4.3-3,6.5c-4.1-2.3-8-4.5-12.1-6.7
	C264.3,67.5,265.5,65.4,266.4,63.2"/>
<path class="st4" d="M271.6,72.7c6.4-10.4,12.7-20.8,19.1-31.4c1.2,1.3,2.4,2.4,3.9,3.5c-6.1,10.5-12.5,20.9-18.9,31.3
	C274.3,74.9,273,73.8,271.6,72.7"/>
<path class="st14" d="M211,402.6c-1.3,6.9-15,10.9-6.3,14.2c7-1.8,34.6-10,40.6-12.6c3-1.6,6-2.9,8.3-5.3c7.3-7.8,1.3-9.4,1-9.3
	C235.8,394.6,230.5,396.6,211,402.6"/>
<path class="st15" d="M205.7,415l7-14.9c-1.7-2.4-4.3-1.1-6.3-2.9c-2.7-2.7-8.3,3.1-11.7,1.6c0.3,4.4,3,13.3,4,17.5
	C198.7,431.6,200.3,425.6,205.7,415"/>
<path class="st16" d="M159,409l-0.3,3.3l2,6.9c4.3,6,6.3,11.1,5,17.7c4.3-1.6,2.7-1.6,6,6.2c1.7,3.5,3,7.1,4.3,10.6
	c3,7.3,7,14.9,8.7,22.8l20.3,46.1l2,4.4l21,51.4l12-1.8c-13.7-56.5-38.6-122.2-42.6-175.4l-8.7-2.7C175.4,400.4,169,404.1,159,409"
	/>
<path class="st17" d="M114.4,212.6c-13.3,21.3-10.3,38.1-10.3,65.8l3,22.4c3,0.7,21.3,3.8,23,3.3c-1.3-9.8,8.3-49.8,6-64.1
	c2.4,14.4,5,70.3-4,78.3c-6.3,20.2,3.7,67,8.7,75.6c11.7,39,19,39.5,24.6,34.4c6.3-6,17.7-25.3,45.6-25.7c22-1.3,25.3-6.9,43.6-13.1
	c0,0-22.6-35.9-31-53.7c-5-10.9-23.3-49.7-23.3-59.9c-0.3-10.4,1-0.2-3-7.5c-5.7-9.8-0.2-15.5-2.2-26.8
	c-2.3-12.4-11.4-15.8-21.1-20.9c3.8,2,6.1,1,11.5,3.9c2-24.6-0.5-21.9,3.5-19.9c-2.7-3.1-0.7-0.7-3-2.7l-3.7-3.3l-17-1.8
	c-8.7,8-27.6,10-36,1.3l9.7-4.4c0.3-2.4,1-1.8-1.7-1.8l-14.3,3.1c-1.7,7.5,2,5.1-1,10.2C121.4,206.8,116.1,211.5,114.4,212.6"/>
<path class="st18" d="M116.8,153.4c-0.7,0.2,1,1.3,1.7,2.9c12.7-2.9,16-10.4,21.6-17.3c-1,8.4-10,18-21.6,21.5l0.3,3.1
	c-0.7,9.3,9.3,22.6,18.6,28.6c2.7,0,2-0.7,1.7,1.8c4.7-2,4.7-2.9,8.3-8.6l4-5.8c1-1.3,2-2.7,2.7-4.2l2.7-8.6
	c-3.3-3.1-11-5.8-5.7-12.9c5-7.1,11-1.6,14,2.4c4.7-4.9,7-8.4,8.3-16.8c5,13.7-5.3,20.8,19.6,14c0,20.2-3.3,41.7-25.6,35.3l-1.3,6
	l-0.7,2.4l17,1.8c7.7-1.1,10-4,16-6.2c-2.7-23.1,4-60.5-12.3-70.7c-30.3-18.8-44,13.5-58.3,26.2
	C126.4,149.2,120.4,152.1,116.8,153.4"/>
<path class="st15" d="M165.7,436.9l-16.3,85.8l-1,1.8l-8.3,43.5l12.3,4.9l2-5.5l14.7-44.8l0.7-1.3l15-44.6c-1.7-8-5.7-15.5-8.7-22.8
	c-1.3-3.5-2.7-7.1-4.3-10.6C168.4,435.4,170,435.4,165.7,436.9"/>
<path class="st16" d="M252.6,199.3l-1,1.6c2.3,7.1,0.7,0,3,6.4c-3.7,4.4-4.7,6.9-12.7,7.3c-10,10.9-12.7,30.4-22.3,42.6l-1.7-3.5
	c-3.7,3.1-2,0.7-4.7,6c-1,2-2.3,5.5-3,7.3c-3,7.5-2.7,8.6-1.7,15.5c0.3,0.4,0.7,0.4,1,1.1c0.7,2.2,9,8,14.3,5.3
	c8.3-4,18.6-58.5,26.6-67.4c4.3-4.9,15.7-16.8,15.7-16.6c0,0-3-4-1.3-7.5c1-2,4.7-5.1,6.3-6.9c0.7-2.9-1-2.9-2.3-3.3
	c-6.3,5.3-4.7,6.4-10.7,12.9L252.6,199.3z"/>
<path class="st14" d="M200.3,276c2.3,4.9,2.3,6.9,8.3,6.4c-1-6.9-1.3-8,1.7-15.5c0.7-1.8,2-5.3,3-7.3c2.7-5.3,1-2.9,4.7-6
	c-4.3-6.4-9-17.7-12.7-25.3c-2.3-4.9-4.3-8.9-6.7-13.5c-3-6.4-8-12.4-12.7-14.6c-5.3-2.4-4.7-3.1-3,2.2c1,3.5,2.3,9.8,1.3,20.8
	c-5.3-2.9-6.7-4.7-10.3-2.4c8.3,6.7,16.3,9.5,18.6,21.9c2,11.3-1,16,4.7,25.7C201.3,275.8,199.3,272.2,200.3,276"/>
<path class="st16" d="M154.1,175.3c5,6,5.7,13.3,13.3,13.3c22.3,6.4,25.6-15.1,25.6-35.3c-25,6.9-14.7-0.2-19.6-14
	c-1.3,8.4-3.7,12-8.3,16.8c-3-4-9-9.5-14-2.4c-5.3,7.1,2.3,9.8,5.7,12.9L154.1,175.3z M159,156.9c3.3,6.7-0.7,3.1-1.7,4.2
	c-4-1.8-2.3,2-3-2.9c-1-5.1-1-2,1.7-2.9C162.7,153.6,158.4,155.2,159,156.9z"/>
<path class="st16" d="M147.7,366.7l15,0.2c-8.3-3.5-24.3-39.5-30.6-48.6c-3.3-6.7-2.7-5.8-2-14.2c-3-2.4,1,0.2-8.3-1.6
	c-4.7-1.1-9.7-0.9-14.7-1.8c1.7,16.2,1.7,14.9,9.7,24.6C123.7,334.1,144.4,358.9,147.7,366.7"/>
<path class="st19" d="M129.4,575.1l-8.7,28.4c4-3.1,2.7-2.2,5-8.2c4-8.9,4-7.1,7.3-8.9c1.3,6.2-0.3,17.3,3.7,22.8
	c3.3,4.4,12.3,6,17.7,9.1l7,0.4c-1.7-7.3,1.3-0.9-4-6.9c-1.3-1.8-2.7-2.9-4.7-4.9c-7.7-2-8.7-3.1-9.3-12.2
	c-0.7-7.5-0.7-14.2-1.3-22.2l8.7,3.3l1.7-3.1l-12.3-4.9C134.7,570.6,133.4,571.7,129.4,575.1"/>
<path class="st19" d="M228,578.6c-7.3,11.8-6,6.9-3.7,28.6c0,1.1-0.3,10-0.3,11.1h1l2.7-19.5c5.3,2,5,3.1,7.7,9.1
	c3.7,7.3,2.7,5.1,7.7,10.6l21.3-0.2c6.7-4,1.7,0.4,4.3-4.9l-12-3.3c-9.7-2.7-10.7-1.8-15.7-11.3c-3.7-7.1-5.7-11.5-9-17.3l9.7-1.6
	l-1.7-3.1L228,578.6z"/>
<path class="st16" d="M139.1,194l-9.7,4.4c8.3,8.6,27.3,6.7,36-1.3l1-4.2c-5-3.1-5-1.1-8-6.7c-2-3.5-3-6.9-4.3-10.9
	c-2.7,2.9-4.7,6.7-6.7,10C143.7,191.1,143.7,192,139.1,194"/>
<path class="st20" d="M130.1,304.1c-0.7,8.4-1.7,7.5,4,10.6c9-8,6.3-63.6,2-74.7C135.1,254.5,128.7,294.4,130.1,304.1"/>
<path class="st17" d="M136.4,378.4c2.7,2.2,2.3,0.9,2,1.8c7-6,1-4.2,10.3-8.2l-1-5.3c-2.3-5.3-12.7-18.2-17-21.5L136.4,378.4z"/>
<path class="st16" d="M256.6,610.1l-12.3-25.7c-2.7-2.9-1-0.4-2.7-4.4l-9.7,1.6c3.3,5.8,5.3,10.2,9,17.3
	C246,608.3,247,607.4,256.6,610.1"/>
<path class="st15" d="M152.7,607l-2-31l-8.7-3.3c0.7,8,0.7,14.6,1.3,22.2C144.1,603.9,145.1,605,152.7,607"/>
<path class="st21" d="M252.6,199.3l5.7,0.7c6-6.4,4.3-7.5,10.7-12.9c1-5.1,1.3-2.4-0.7-6.7c-7.7,0.7-4,0.4-9,8
	C256.6,192.6,255,193.7,252.6,199.3"/>
<path class="st22" d="M245,203c0.7,5.5-1.3,7.8-3,11.5c8-0.4,9-2.9,12.7-7.3c-2.3-6.4-0.7,0.7-3-6.4l-1.7-0.2l-2.7,5.3L245,203z"/>
<path class="st23" d="M166,194.6l1.3-6c-5.7-1.3-8.3-7.3-13.3-13.3C156.4,182.4,158,189.5,166,194.6"/>
<path class="st15" d="M157.4,161.1c1.3,0.6,7.9,2.2,3-4.4c-1.1-1.5,4.4-3.6-4.3-1.3c-2.7,0.7-2.7-2.2-1.7,2.9
	C155,163.1,153.4,159.4,157.4,161.1"/>
<polygon class="st23" points="245,203 247.3,205.9 250,200.6 246.6,198.8 "/>
<path class="st20" d="M147.3,366.8c-2.8,0.2-2.5-0.2-3.3,1.8c3.2,7.1,26.2,9.1,24.5-2.9C163.7,366.1,150.4,365.9,147.3,366.8"/>
<path class="st24" d="M466.3,505.7c-4.6-4.9-20.6-24.8-23.7-34.8c-0.7-2.3,6.5-4.7,11.9-1.2c9.9,6.5,22.7,18.3,26.4,22.3
	c5.7,6.1,7.1,14.1,3.1,17.9C479.9,513.7,472,511.9,466.3,505.7"/>
<path class="st13" d="M552,465.2c-0.3,0-0.6-0.1-0.9-0.2c-5.5-2.2-9.9-6.5-12.2-12c-2.3-5.5-2.4-11.6-0.2-17.1l8.7-21.5
	c2.2-5.5,6.5-9.9,12-12.2c5.5-2.3,11.6-2.4,17.1-0.2c1.8,0.7,2.7,2.8,2,4.7c-0.7,1.8-2.8,2.7-4.7,2c-3.8-1.5-7.9-1.5-11.6,0.1
	c-3.7,1.6-6.6,4.5-8.1,8.3l-8.7,21.5c-1.5,3.8-1.5,7.9,0.1,11.6c1.6,3.7,4.5,6.6,8.3,8.1c1.8,0.7,2.7,2.8,2,4.7
	C555.2,464.5,553.6,465.3,552,465.2"/>
<path class="st13" d="M585.9,487.5c-6.5,54.1-38.1,113.1-70.4,109.2c-32.3-3.9-49.1-67.9-42.5-122.8c4.3-35.6,31.9-61.6,64.2-57.7
	C569.4,420.1,590.1,451.9,585.9,487.5"/>
<path class="st25" d="M564.6,461.3c-1.7,13.8-20.5,22.9-42,20.3c-21.5-2.6-37.6-15.9-36-29.7c1.7-13.8,20.5-22.9,42-20.3
	C550.2,434.2,566.3,447.5,564.6,461.3"/>
<path class="st26" d="M499.9,453.1c-0.1,1.1-1.1,1.9-2.2,1.7c-1.1-0.1-1.9-1.1-1.7-2.2c0.1-1.1,1.1-1.9,2.2-1.7
	C499.2,451,500,452,499.9,453.1"/>
<path class="st26" d="M512.6,455.2c-0.1,1.1-1.1,1.9-2.2,1.7c-1.1-0.1-1.9-1.1-1.7-2.2c0.1-1.1,1.1-1.9,2.2-1.7
	C512,453.1,512.8,454.1,512.6,455.2"/>
<path class="st26" d="M509.5,450.3c-0.1,1.1-1.1,1.9-2.2,1.7c-1.1-0.1-1.9-1.1-1.7-2.2c0.1-1.1,1.1-1.9,2.2-1.7
	C508.8,448.2,509.6,449.2,509.5,450.3"/>
<path class="st26" d="M504.5,449.4c-0.1,1.1-1.1,1.9-2.2,1.7c-1.1-0.1-1.9-1.1-1.7-2.2c0.1-1.1,1.1-1.9,2.2-1.7
	C503.8,447.3,504.6,448.3,504.5,449.4"/>
<path class="st26" d="M538.6,457.7c-0.1,1.1-1.1,1.9-2.2,1.7c-1.1-0.1-1.9-1.1-1.7-2.2c0.1-1.1,1.1-1.9,2.2-1.7
	C538,455.7,538.7,456.6,538.6,457.7"/>
<path class="st26" d="M551.3,459.8c-0.1,1.1-1.1,1.9-2.2,1.7c-1.1-0.1-1.9-1.1-1.7-2.2c0.1-1.1,1.1-1.9,2.2-1.7
	C550.7,457.7,551.5,458.7,551.3,459.8"/>
<path class="st26" d="M548.2,454.9c-0.1,1.1-1.1,1.9-2.2,1.7c-1.1-0.1-1.9-1.1-1.7-2.2c0.1-1.1,1.1-1.9,2.2-1.7
	C547.5,452.9,548.3,453.8,548.2,454.9"/>
<path class="st26" d="M543.2,454.1c-0.1,1.1-1.1,1.9-2.2,1.7c-1.1-0.1-1.9-1.1-1.7-2.2c0.1-1.1,1.1-1.9,2.2-1.7
	C542.5,452,543.3,453,543.2,454.1"/>
<path class="st24" d="M586.8,508.8c2.6,8,11,43.9,4.3,46c-6.7,2.2-20.8-31.9-23.4-39.9c-2.6-8-0.4-15.8,4.9-17.5
	C577.9,495.7,584.3,500.8,586.8,508.8"/>
</svg>
