<svg id="Layer_1" data-name="Layer 1" xmlns="http://www.w3.org/2000/svg" viewBox="0 0 444.33 863.39"><defs><style>.cls-1{fill:#f7e2b2;}.cls-1,.cls-2{fill-rule:evenodd;}.cls-2{fill:#db7d5e;}</style></defs><path class="cls-1" d="M697.38,576.77l-.29,14.94a310.74,310.74,0,0,1-8.24,50.49,225.88,225.88,0,0,1-12.44,36.86,201.37,201.37,0,0,1-13.16,23.69c-4.36,6.51-7.93,11.65-12.84,17.9l-5.6,6.87c-.55.63-.85,1.07-1.38,1.67L639.14,734c-4.37,4.72-9,9.59-13.85,13.85l-6.51,6C616.22,756.34,606,764,603.19,766a142,142,0,0,1-19.38,11.36c-1.4.69-3.09,1.22-4.44,1.93.46-2,5.4-8.19,6.86-9.76l14.13-15.23c5.11-5.16,17.34-20,20.9-25.36L628,718.76c8.7-13.24,20.2-37.6,25-50.89l4.5-12.4a236.41,236.41,0,0,0,7-26.51c.74-3.94,4.57-26.79,3.21-30.31.6-.25.63.62.56-2.48-1.32-44,4.06-41.22-8.56-79l-6-17.5c-3.39-8.62-6.53-16.71-10.69-25-2.9-5.79-5.77-10.38-8.41-15.39l-4.52-7.41c3.38.79,14.77,9.58,17.79,12.39,30.39,28.25,49.52,70.22,49.52,112.53ZM419.28,418.33c-1.55,16.53-6.26,32.28-9.54,48.08-6.39,30.8-13.79,71.14-.83,101,2.27,5.23,7.08,13.86,11.17,17.92a78.94,78.94,0,0,0,7.36,7c1.52,1.29,6.82,5.35,8.82,6,4.67-10.47,11-22.25,15.79-33.42,2.45-5.77,5.13-11.24,7.58-17.07s4.94-11.48,7.41-17.25c4.91-11.5,9.9-23.12,14.45-34.86,1.76-4.54,13.84-33.58,13.84-35.68,1.07-1,2-4.65,2.64-6.28,5.67-15.31,11.66-30.47,16.86-46C528.46,367,539.65,337,544,292.89c1.18-12,2.92-48,5.08-57.81a24.68,24.68,0,0,1,1.52-5.11c.36-.83.33-1.08,1.1-1.22.14,1.14,2.53,6.8,3.14,8.89,3.1,10.68,3.91,21.83,3.56,33.05-.45,14.72-2.93,29.12-5.83,42.95-3.51,16.73-10.21,40.94-15.2,58-1.12,3.82-4.45,15.84-5,19.27,7.79-1.54,18.87-8.18,23-12.14,7.88-7.62,9.44-9.57,15.89-19.57,4.61-7.16,8.56-15.2,13.22-22.23,4-6,10.46-15.41,16-19.37,3.11,5.14-3.43,19.1-6.19,23.95-7.62,13.39-17.25,24.37-27.38,35.21a114,114,0,0,1-16.74,14.84,57.77,57.77,0,0,1-9.85,5.68c-3.9,1.7-8.69,2.19-10.81,5-4.75,6.23-14.45,35.63-17.8,45.08-2.8,7.88-5.41,15.47-8.47,23.11-17.7,44.27-36.93,90.18-53.32,135-1.76,4.8-15.46,42.15-16.42,46.43,5.24,1.91,17.16,2.41,23.21,2.23,27.59-.85,54.53-11.2,77.84-24.15,6-3.31,17.34-10.8,22.45-15.78a113.38,113.38,0,0,1,14-11.46c4.57-2.9,6.86-3,8.7-4.09.49.21,1-.17,0,2.21-.35.81-.64,1.54-1,2.3a31.83,31.83,0,0,1-2.46,3.9c-5.84,7.73-12.2,12.86-20.26,18.79a207,207,0,0,1-32.52,19.28,131,131,0,0,1-39.72,12.09c-15.61,2.35-37.59,2.66-51.41,7-2.72.86-2.4.29-3.4,3-12.79,34.15-34.91,123.56-27.5,158,.28,1.32.83,4,1.61,5.17a57.29,57.29,0,0,0,1.5-6.66,66.68,66.68,0,0,1,1.55-6.76c1.36.11,3,.59,4.43.83,7.16,1.17,16.38,2.88,23.55,3.32,3.15.2,6.79.66,10,.83,64.38,3.48,127.1-19,176.78-59.24,4.77-3.86,13-11.3,17.06-15.34,1.64-1.63,4-3.73,5.38-5.43L652,732c.61-.66.73-.82,1.28-1.49l18.13-24.81c6.31-10.61,9.69-16.28,14.86-28.07,2.61-5.94,3.77-9.6,6-15.31,1.08-2.71,1.73-5.26,2.68-8.12,5.89-17.56,10.42-47.08,10.42-64.92,0-16.21-.36-22.12-3.89-39.32-4-19.49-4-34.63-15.86-48.69-3.42-4.58-15.14-24-16.42-25.41-.52-.6-.1-.39-.67-.43-.21-1.15-.38-1.1-1.07-2l-11.32-12.77c-.68-.66-1-.76-1.67-1.38l-10-8.32c-2.34-1.77-4.62-3.22-7.06-4.86L618.6,434.51c-1.25-.82-2.54-1.68-3.77-2.33,0-4,8-27.45,9.73-32.65,4.89-14.78,15.61-40,21.67-53.68l11.44-26.5a499.76,499.76,0,0,0,19.25-51.67c5-15.65,7.78-29.81,10-46.49l.86-8.55c.43-2.94.16-6.21.6-9.1.33-2.19.11-10.69.12-14,0-1.9-.2-2.94-.28-4.43-.8-15-2.29-25.84-6.49-40.6a165.51,165.51,0,0,0-7.64-20.89,140.13,140.13,0,0,0-17.94-29.15c-1.51-1.85-3-3.41-4.46-5.24-1.19-1.5-3.24-3.3-4.68-4.74L641,78.93c-.59-.5-.68-.63-1.35-1.15-1-.74-1.72-1.41-2.61-2.1-1.76-1.35-3.56-2.65-5.48-3.93-12.62-8.39-29.79-15.47-46-15.45h-5.4c-9.81.09-20.89,3.55-29.3,7.75l-4.66,2.54c-1.35.77-1.09.56-1.44,1.34-.83-.19-.08-.18-.77.07l-2.47,1.67c-1.09.81-1.93,1.41-3,2.26a58.61,58.61,0,0,0-5.59,4.93C527,82.73,523,87.22,518.59,94.41a105.19,105.19,0,0,0-7.48,13.85c-6.48,15.59-8.86,23.26-13.13,40.33C487.88,189,484.82,235,476.57,276.21c-2.62,13.12-7.41,33.56-12.28,46.16-.52,1.36-1,2.82-1.54,4-1.36-.11-10.14-6.16-12.24-7.43-19.83-11.93-44-19.67-65-4.16l-3.61,2.76a14.25,14.25,0,0,0-1.76,1.56,16.88,16.88,0,0,1-1.79,1.53,62.55,62.55,0,0,0-4.73,5.25c-4.5,5.05-10.1,14-13.18,20.06-.43.85-.68,1.37-1.1,2.22-10.94,21.76-16.13,45.6-20.48,69.5l-.47,2.35c-1.39,10.43-2.75,18-3.63,29.6L333.82,462c-.6,3.94-.21,8.65-.44,12.86-.07,1.25-.29,1.51-.29,3a30.21,30.21,0,0,1,0,3.3c-.18,1.66-.36,4.45-.5,6.15-.87,11.11-1.25,23.16-7.43,32.45-3.66,5.5-12.82,12.09-18.28,18.29-.54.61-1.07,1.07-1.66,1.66L302,543.19a183.47,183.47,0,0,0-23.94,35.61,154.76,154.76,0,0,0-13.88,39.31c-.76,3.85-2.38,13-2.56,17.11-.06,1.6-.19,4.57-.43,6.21-.05.29-.09.6-.12.91v10.38c.09,1.77.2,3.47.28,4.93a27.69,27.69,0,0,0,.16,3.17c.3,2,.35,4.32.58,6.06a162.75,162.75,0,0,0,4.3,22.3c.84,3.41,2,6.82,3.09,10.2s2.28,6.48,3.62,9.68c2.67,6.37,5.41,11.89,8.56,17.75a183.54,183.54,0,0,0,16,23.85c2.06,2.51,3.85,4.87,6.1,7.19l6.37,6.93a198.47,198.47,0,0,0,21.5,18.39,158.18,158.18,0,0,0,16.12,10.48l8.66,4.63c3,1.51,6,2.81,9.13,4.17s6.19,2.45,9.58,3.71l10,3.29v3.25c.08-.18,2.5-25.36,2.86-28.36,1.13-9.27,2.49-18.51,4-27.59,5.93-36.6,14.27-65.1,26.32-99.47,4.48-12.78,12.48-36.4,13.63-49.51l-8.53-7.47a95.12,95.12,0,0,1-9.71-10.24c-16.94-20.59-20.07-46.42-19.53-73.95.4-20.19,1.54-40.62,4.83-60.11,2-12,5.44-26.71,11.74-36.75,1.69-2.7,5.05-7.29,8-8.42a32.4,32.4,0,0,1,.53,7.5ZM662.2,227.48c0-6.23,1.35-17.34.39-23.66-.29-1.91.07-4-.19-5.9-.18-1.28-.4-4.22-.47-5.62-.2-4-.72-7.58-1.14-11.33-1.51-13.38-5.17-27.64-9.29-40-3.81-11.45-12.83-31.15-20.69-40.8a65.1,65.1,0,0,0-16.2-14.55l-2.84-1.89c-.91-.47-.85-.28-1.1-.27-.61-1-.36-.66-1.81-1.5l-9.81-5.71c-1.33-.77-2.59-1.53-4-2.36l-13.47-8.14a5.81,5.81,0,0,1-1.92-1.4c14.16,0,29.49,3.28,41.83,9.42s22.64,16.69,30.59,27.3c1,1.3,1.83,2.35,2.71,3.66,1.81,2.72,3.36,5.07,5.08,7.94,17.8,29.57,23.44,72.17,19,106.88-.52,4.06-.71,7.46-1.34,11.4a300.46,300.46,0,0,1-9.43,42.1c-1.59,5.57-4.44,13.74-6.57,19.19a231.35,231.35,0,0,1-13.12,28.7c-1.56,2.91-7.15,12.92-8.68,14l20.43-92.87c.27-1.27.42-1.91.69-3.18A49.88,49.88,0,0,0,662.2,227.48Z" transform="translate(-261.08 -56.3)"/><path class="cls-2" d="M495.33,460.11c0,2.1-12.08,31.14-13.84,35.68-4.55,11.74-9.54,23.36-14.45,34.86-2.47,5.77-5,11.46-7.41,17.25s-5.13,11.3-7.58,17.07c-4.75,11.17-11.12,22.95-15.79,33.42-2-.63-7.3-4.69-8.82-6a78.94,78.94,0,0,1-7.36-7c-4.09-4.06-8.9-12.69-11.17-17.92-13-29.9-5.56-70.24.83-101,3.28-15.8,8-31.55,9.54-48.08a32.44,32.44,0,0,0-.53-7.5c-2.94,1.13-6.3,5.72-8,8.42-6.3,10-9.71,24.79-11.74,36.75-3.29,19.49-4.43,39.92-4.83,60.11-.54,27.53,2.59,53.36,19.53,73.95a95.12,95.12,0,0,0,9.71,10.24l8.53,7.47c-1.15,13.11-9.15,36.73-13.63,49.51-12.05,34.37-20.39,62.87-26.32,99.47-1.48,9.08-2.84,18.32-4,27.59-.36,3-2.78,28.18-2.86,28.36v13.64l.27,9.71c0,1.6.25,1.89.3,3.3.07,2.6.11,6.95.46,9.51l.62,9.63c.19,2.34.12,4.27.31,6.62l1.36,22.18c0,1.61.25,1.89.29,3.31a220.51,220.51,0,0,1-.28,26.6,3.87,3.87,0,0,1,3,2.49c2.06-.48,10.29-3.82,12.75-3.88a6.69,6.69,0,0,1,1.77-4c1.78-2.29,1.39-.84.84-4.38-.58-3.71-1-6.86-1.66-10.53-3.13-18.57-6.27-44.82-2.74-64a10.61,10.61,0,0,0,.4-2.52c-.78-1.14-1.33-3.85-1.61-5.17-7.41-34.42,14.71-123.83,27.5-158,1-2.68.68-2.11,3.4-3,13.82-4.38,35.8-4.69,51.41-7a131,131,0,0,0,39.72-12.09,207,207,0,0,0,32.52-19.28c8.06-5.93,14.42-11.06,20.26-18.79a31.83,31.83,0,0,0,2.46-3.9c.41-.76.7-1.49,1-2.3,1-2.38.52-2,0-2.21-1.84,1.06-4.13,1.19-8.7,4.09a113.38,113.38,0,0,0-14,11.46c-5.11,5-16.5,12.47-22.45,15.78-23.31,12.95-50.25,23.3-77.84,24.15-6,.18-18-.32-23.21-2.23,1-4.28,14.66-41.63,16.42-46.43,16.39-44.86,35.62-90.77,53.32-135,3.06-7.64,5.67-15.23,8.47-23.11,3.35-9.45,13.05-38.85,17.8-45.08,2.12-2.78,6.91-3.27,10.81-5a57.77,57.77,0,0,0,9.85-5.68,113.45,113.45,0,0,0,16.73-14.84c10.14-10.84,19.77-21.82,27.39-35.21,2.76-4.85,9.3-18.81,6.19-23.95-5.57,4-12.07,13.41-16,19.37-4.66,7-8.61,15.07-13.22,22.23-6.45,10-8,11.95-15.89,19.57-4.1,4-15.18,10.6-23,12.14.58-3.43,3.91-15.45,5-19.27,5-17,11.69-41.23,15.2-58,2.9-13.83,5.38-28.23,5.83-42.95.35-11.22-.46-22.37-3.56-33.05-.61-2.09-3-7.75-3.14-8.89-.77.14-.74.39-1.1,1.22a24.68,24.68,0,0,0-1.52,5.11c-2.16,9.83-3.9,45.81-5.08,57.81-4.32,44.11-15.51,74.16-29.14,114.92-5.2,15.55-11.19,30.71-16.86,46C497.37,455.46,496.4,459.08,495.33,460.11Z" transform="translate(-261.08 -56.3)"/></svg>